<?xml version="1.0" encoding="utf-8"?>
<!-- Generator: Adobe Illustrator 26.3.1, SVG Export Plug-In . SVG Version: 6.00 Build 0)  -->
<svg version="1.1" id="_x31_" xmlns="http://www.w3.org/2000/svg" xmlns:xlink="http://www.w3.org/1999/xlink" x="0px" y="0px"
	 viewBox="0 0 693.3125 96.9000015" style="enable-background:new 0 0 693.3125 96.9000015;" xml:space="preserve">
<style type="text/css">
	.st0{fill:#231F20;}
</style>
<g>
	<path class="st0" d="M199.710144,24.5556126c-14.3287354,0-25.9441376,11.615694-25.9441376,25.9444256
		c0,14.3279648,11.6154022,25.9436569,25.9441376,25.9436569c14.3283539,0,25.9436646-11.6156921,25.9436646-25.9436569
		C225.6538086,36.1713066,214.0384979,24.5556126,199.710144,24.5556126z"/>
	<polygon class="st0" points="1,75.3171616 50.4170074,75.3171616 50.4170074,25.9006329 	"/>
	<polygon class="st0" points="99.8339233,75.3171616 99.8339233,25.9006329 50.4170074,75.3171616 	"/>
	<polygon class="st0" points="113.4470215,25.9006329 113.4470215,75.3171616 162.8640289,75.3171616 162.8640289,25.9006329 
		138.1555786,50.6092796 	"/>
	<polygon class="st0" points="278.9986572,43.5591393 271.228363,26.2122612 266.5401611,50.2240601 270.0228577,50.2240601 
		272.3674622,36.7286339 278.7973938,51.2620506 285.2937622,36.7615967 287.5719299,50.2240601 291.0545654,50.2240601 
		286.8343811,26.2122612 	"/>
	<polygon class="st0" points="296.8501587,50.2240601 300.3992615,50.2240601 310.4804077,27.8857727 306.9303284,27.8857727 
		301.7058716,39.8096428 295.9460144,27.8857727 291.7931824,27.8857727 299.7301025,43.8941498 	"/>
	<path class="st0" d="M326.7546082,39.9100723c-0.6365051-0.8049431-1.6070251-1.6083527-3.0137634-1.9759407
		c0.7029114-0.4024734,1.4404602-0.9724464,2.009491-1.9429779c0.5690308-0.9053688,0.7366333-1.7754707,0.7366333-2.778965
		c0-1.6079674-0.5354004-2.8809261-1.6080933-3.9189167c-1.6069946-1.5405064-3.5827332-1.7754726-5.1907043-1.7754726
		c-1.3731079,0-2.7123718,0.1675053-4.0517273,0.8379059c-0.5026245,0.2349663-1.7755737,0.9375668-2.8798828,2.4109936
		l2.2434082,2.1760235c0.2013245-0.2679291,0.8377075-1.07057,1.8419495-1.6409302
		c0.8703918-0.5025139,1.674469-0.6355209,2.7123718-0.6355209c0.8039856,0,1.8082581,0.0674629,2.5784912,0.6704025
		c0.5700684,0.435051,1.0717468,1.2054977,1.0717468,2.3109512c0,0.9705276-0.4352417,1.8080521-1.0042725,2.2760658
		c-0.8039856,0.6700211-2.2434082,0.9049873-3.2149658,0.9049873h-1.8082581v3.214016h2.009491
		c1.138031,0,2.8125,0,4.0517273,0.8704872c0.9377441,0.6374359,1.3065796,1.5079231,1.3065796,2.6133766
		c0,1.1725349-0.4688721,2.1430626-1.0716248,2.7460022c-1.0717163,1.0705719-2.5785828,1.2054977-3.4162903,1.2054977
		c-1.3392944,0-2.5447693-0.2349663-3.6838684-1.0379906c-0.6701965-0.4699326-1.5405884-1.305542-2.0758972-2.7134209
		l-3.0147705,1.5405045c0.7366028,1.575386,1.7755432,2.78088,2.8471985,3.6164894
		c1.7745056,1.3404198,3.5163269,1.7428894,5.4921875,1.7428894c1.8082275,0,4.152832-0.3350105,6.0274658-1.9429779
		c1.6079712-1.4055786,2.2444458-3.1139717,2.2444458-4.9894867
		C327.8936768,42.2536011,327.6260376,41.0155258,326.7546082,39.9100723z"/>
	<polygon class="st0" points="344.085083,47.0100403 335.1766968,47.0100403 335.1766968,39.9752312 343.8174438,39.9752312 
		343.8174438,36.7615967 335.1766968,36.7615967 335.1766968,31.1017075 344.085083,31.1017075 344.085083,27.8857727 
		331.7604675,27.8857727 331.7604675,50.2240601 344.085083,50.2240601 	"/>
	<polygon class="st0" points="363.3178406,50.2240601 366.7340393,50.2240601 366.7340393,26.9497414 351.6633301,42.9910812 
		351.6633301,27.8857727 348.2471313,27.8857727 348.2471313,51.2294693 363.3178406,35.1881294 	"/>
	<path class="st0" d="M357.4905396,25.7772083c1.7418213,0,4.3868408-0.6374378,5.5259094-3.4164028l-2.6787109-1.2054958
		c-0.5363464,1.8410168-2.5795593,1.8755131-2.8471985,1.8755131s-2.3108521-0.0344963-2.8461304-1.8755131l-2.679718,1.2054958
		C353.1037903,25.1397705,355.7497559,25.7772083,357.4905396,25.7772083z"/>
	<polygon class="st0" points="400.2426147,50.2240601 403.7262878,50.2240601 399.5061035,26.2122612 391.6693115,43.5591393 
		383.900116,26.2122612 379.2118835,50.2240601 382.6946106,50.2240601 385.0391846,36.7286339 391.4691467,51.2620506 
		397.9655151,36.7615967 	"/>
	<polygon class="st0" points="411.1054077,27.8857727 407.690155,27.8857727 407.690155,51.2294693 422.7598267,35.1881294 
		422.7598267,50.2240601 426.1761169,50.2240601 426.1761169,26.9497414 411.1054077,42.9910812 	"/>
	<path class="st0" d="M441.0118713,29.0931854c-1.6069946-1.0724888-3.516449-1.2074127-4.8894348-1.2074127h-4.9230957v22.3382874
		h3.4162292v-9.0759125h1.5405884c1.6406555,0,3.6838684-0.2349663,5.4584656-1.7409744
		c1.8418884-1.575386,2.1769714-3.5835228,2.1769714-4.8894463
		C443.7915955,32.4747086,442.8874817,30.3312626,441.0118713,29.0931854z M436.1561584,37.9996758h-1.5405884v-6.9654312h1.5068665
		c3.8851929,0,4.3877869,2.210907,4.3877869,3.4489861C440.5102234,36.5611305,439.1034851,37.9996758,436.1561584,37.9996758z"/>
	<path class="st0" d="M457.9581909,27.485218c-6.6986389,0-11.6207581,5.0220718-11.6207581,11.5869484
		c0,6.5629578,4.9221191,11.587326,11.6207581,11.587326c6.6976929,0,11.6207886-5.0243683,11.6207886-11.587326
		C469.5789795,32.5072899,464.6558838,27.485218,457.9581909,27.485218z M457.9581909,47.5106392
		c-4.7893066,0-8.2055054-3.4815674-8.2055054-8.4384727s3.4161987-8.4403915,8.2055054-8.4403915
		c4.788269,0,8.2044678,3.4834824,8.2044678,8.4403915S462.74646,47.5106392,457.9581909,47.5106392z"/>
	<path class="st0" d="M482.3837891,38.234642c0.502594-0.2349663,1.172821-0.6704025,1.6733093-1.5405045
		c0.537384-0.8704872,0.6701965-1.775856,0.6701965-2.6463432c0-1.8406334-0.5680542-3.2810955-1.7734375-4.4191303
		c-1.4752502-1.3733845-3.2835083-1.7428913-6.1624146-1.7428913h-3.3835449v22.3382874h5.5922546
		c1.7081909,0,4.4889832-0.3024292,6.2645569-2.1760292c1.0705566-1.1399498,1.4731445-2.4129066,1.4731445-4.018959
		c0-1.3730011-0.2676697-2.9135056-1.4731445-4.1864624C484.1592407,38.7045746,482.7862549,38.3346863,482.3837891,38.234642z
		 M476.8242188,31.1017075h1.1727295c0.97052,0,1.94104,0.1000423,2.7113953,0.8379059
		c0.704895,0.6700172,0.8050537,1.4730453,0.8050537,2.1430626c0,0.770443-0.1001587,1.8084335-0.8704834,2.5439987
		c-0.8049622,0.7700615-1.9430847,0.8724022-2.7807922,0.8724022h-1.0379028V31.1017075z M482.2836304,46.1376381
		c-0.8703918,0.7048988-2.4109802,0.8724022-3.3835144,0.8724022h-2.0758972v-6.6997986h2.1432495
		c1.2055054,0,2.5785828,0.1023445,3.5163574,1.0054092c0.5700684,0.5699768,0.9051819,1.440464,0.9051819,2.3435326
		C483.3890076,44.6645927,482.9538574,45.6021576,482.2836304,46.1376381z"/>
	<path class="st0" d="M501.2670288,50.6594925c6.6976929,0,11.6218262-5.0243683,11.6218262-11.587326
		c0-6.5648766-4.9241333-11.5869484-11.6218262-11.5869484c-6.6975708,0-11.6197205,5.0220718-11.6197205,11.5869484
		C489.6473083,45.6351242,494.569458,50.6594925,501.2670288,50.6594925z M501.2670288,30.6317749
		c4.7893066,0,8.2056274,3.4834824,8.2056274,8.4403915s-3.4163208,8.4384727-8.2056274,8.4384727
		c-4.7891846,0-8.2033997-3.4815674-8.2033997-8.4384727S496.4778442,30.6317749,501.2670288,30.6317749z"/>
	<polygon class="st0" points="520.1340942,31.1017075 527.9043579,31.1017075 527.9043579,27.8857727 516.7178345,27.8857727 
		516.7178345,50.2240601 520.1340942,50.2240601 	"/>
	<path class="st0" d="M552.3800049,39.0721664c0-6.5648766-4.9241333-11.5869484-11.6217651-11.5869484
		c-6.6976929,0-11.6196899,5.0220718-11.6196899,11.5869484c0,6.5629578,4.9219971,11.587326,11.6196899,11.587326
		C547.4558716,50.6594925,552.3800049,45.6351242,552.3800049,39.0721664z M532.5547485,39.0721664
		c0-4.9569092,3.4141846-8.4403915,8.2034912-8.4403915c4.7892456,0,8.2055054,3.4834824,8.2055054,8.4403915
		s-3.4162598,8.4384727-8.2055054,8.4384727C535.9689331,47.5106392,532.5547485,44.0290718,532.5547485,39.0721664z"/>
	<path class="st0" d="M575.0043945,50.6594925c6.6976929,0,11.6207886-5.0243683,11.6207886-11.587326
		c0-6.5648766-4.9230957-11.5869484-11.6207886-11.5869484c-6.6975708,0-11.6196899,5.0220718-11.6196899,11.5869484
		C563.3847046,45.6351242,568.3068237,50.6594925,575.0043945,50.6594925z M575.0043945,30.6317749
		c4.7893066,0,8.2055054,3.4834824,8.2055054,8.4403915s-3.4161987,8.4384727-8.2055054,8.4384727
		c-4.7891846,0-8.2033691-3.4815674-8.2033691-8.4384727S570.21521,30.6317749,575.0043945,30.6317749z"/>
	<polygon class="st0" points="607.0654297,50.2240601 596.9188843,37.9996758 606.9980469,27.8857727 602.5111694,27.8857727 
		593.8704224,36.794178 593.8704224,27.8857727 590.4542236,27.8857727 590.4542236,50.2240601 593.8704224,50.2240601 
		593.8704224,40.9806442 594.5406494,40.3102417 602.5111694,50.2240601 	"/>
	<polygon class="st0" points="622.4365845,47.0100403 613.5281372,47.0100403 613.5281372,39.9752312 622.1688232,39.9752312 
		622.1688232,36.7615967 613.5281372,36.7615967 613.5281372,31.1017075 622.4365845,31.1017075 622.4365845,27.8857727 
		610.1118774,27.8857727 610.1118774,50.2240601 622.4365845,50.2240601 	"/>
	<path class="st0" d="M631.0261841,44.8320999h9.5438232l2.3456421,5.3919601h3.6838379L636.015625,26.5802345
		l-11.1170044,23.6438255h3.6838989L631.0261841,44.8320999z M635.8828125,34.0477943l3.3141479,7.5702858h-6.7650146
		L635.8828125,34.0477943z"/>
	<polygon class="st0" points="652.9579468,39.9426498 662.5365601,39.9426498 662.5365601,50.2240601 665.9527588,50.2240601 
		665.9527588,27.8857727 662.5365601,27.8857727 662.5365601,36.7286339 652.9579468,36.7286339 652.9579468,27.8857727 
		649.541748,27.8857727 649.541748,50.2240601 652.9579468,50.2240601 	"/>
	<path class="st0" d="M675.0266724,44.8320999h9.5438232l2.3456421,5.3919601h3.6838379l-10.5838013-23.6438255
		l-11.1171265,23.6438255h3.68396L675.0266724,44.8320999z M679.8833618,34.0477943l3.3141479,7.5702858h-6.7651367
		L679.8833618,34.0477943z"/>
	<polygon class="st0" points="272.9815063,71.6324463 268.9640808,62.6638603 266.5401611,75.0783615 268.3408203,75.0783615 
		269.5530396,68.1010513 272.8774414,75.6149902 276.236145,68.1179123 277.4140625,75.0783615 279.2146301,75.0783615 
		277.0327759,62.6638603 	"/>
	<polygon class="st0" points="283.0297852,63.5289803 281.2634888,63.5289803 281.2634888,75.5981293 289.0554199,67.3045425 
		289.0554199,75.0783615 290.8217163,75.0783615 290.8217163,63.0452499 283.0297852,71.3388367 	"/>
	<polygon class="st0" points="300.1373596,68.1010513 295.1850586,68.1010513 295.1850586,63.5289803 293.4193726,63.5289803 
		293.4193726,75.0783615 295.1850586,75.0783615 295.1850586,69.7626801 300.1373596,69.7626801 300.1373596,75.0783615 
		301.9031677,75.0783615 301.9031677,63.5289803 300.1373596,63.5289803 	"/>
	<polygon class="st0" points="306.2670898,63.5289803 304.500824,63.5289803 304.500824,75.5981293 312.2926636,67.3045425 
		312.2926636,75.0783615 314.0589294,75.0783615 314.0589294,63.0452499 306.2670898,71.3388367 	"/>
	<path class="st0" d="M317.8835754,64.8283844c-0.9697876,0.9168701-1.8523254,2.3895264-1.8523254,4.5191727
		c0,1.6267548,0.5017395,3.099411,1.8523254,4.3627853c0.6755676,0.6412735,1.991272,1.5930176,4.0861206,1.5930176
		c0.7965088,0,2.008728-0.1732483,3.1686096-0.8651199v-2.0959091c-0.6575623,0.6232529-1.7314148,1.3331299-3.1163025,1.3331299
		c-2.4588013,0-4.2250671-1.8866272-4.2250671-4.3279037c0-2.5459137,1.6970825-4.3988113,4.2076416-4.3988113
		c0.6581421,0,1.8529053,0.1215057,3.133728,1.2813873V64.153389c-1.0040894-0.6412735-2.0256042-0.8313942-3.0819702-0.8313942
		C320.4637756,63.3219948,319.0783386,63.7022362,317.8835754,64.8283844z"/>
	<polygon class="st0" points="326.4207458,65.1917572 329.0696716,65.1917572 329.0696716,75.0783615 330.8359375,75.0783615 
		330.8359375,65.1917572 333.4853516,65.1917572 333.4853516,63.5289803 326.4207458,63.5289803 	"/>
	<polygon class="st0" points="335.0397339,75.0783615 341.4119263,75.0783615 341.4119263,73.4155807 336.8060303,73.4155807 
		336.8060303,69.7795486 341.2735291,69.7795486 341.2735291,68.1179123 336.8060303,68.1179123 336.8060303,65.1917572 
		341.4119263,65.1917572 341.4119263,63.5289803 335.0397339,63.5289803 	"/>
	<path class="st0" d="M348.6375122,64.153389c-0.8308105-0.5546455-1.8180237-0.6244087-2.5278931-0.6244087h-2.5447693v11.5493813
		h1.765686v-4.6924286h0.7965088c0.8482666,0,1.9046631-0.1215057,2.8222046-0.9000015
		c0.952301-0.8145218,1.1255798-1.8528976,1.1255798-2.5279007
		C350.0748291,65.9016418,349.6072693,64.7935028,348.6375122,64.153389z M346.1270447,68.7580338h-0.7965088v-3.6011505h0.7790833
		c2.0086975,0,2.2685852,1.143013,2.2685852,1.7831345C348.3782043,68.0144272,347.6508789,68.7580338,346.1270447,68.7580338z"/>
	<path class="st0" d="M353.2434082,64.8283844c-0.9697571,0.9168701-1.8529053,2.3895264-1.8529053,4.5191727
		c0,1.6267548,0.5023193,3.099411,1.8529053,4.3627853c0.6755676,0.6412735,1.991272,1.5930176,4.0860291,1.5930176
		c0.7965088,0,2.008728-0.1732483,3.1687012-0.8651199v-2.0959091c-0.6576538,0.6232529-1.7314758,1.3331299-3.1163635,1.3331299
		c-2.4587097,0-4.2249756-1.8866272-4.2249756-4.3279037c0-2.5459137,1.6970825-4.3988113,4.2075195-4.3988113
		c0.6581421,0,1.8529053,0.1215057,3.1338196,1.2813873V64.153389c-1.0041504-0.6412735-2.0256653-0.8313942-3.0820618-0.8313942
		C355.8230591,63.3219948,354.4381714,63.7022362,353.2434082,64.8283844z"/>
	<polygon class="st0" points="361.7799988,65.1917572 364.4289551,65.1917572 364.4289551,75.0783615 366.1952209,75.0783615 
		366.1952209,65.1917572 368.844635,65.1917572 368.844635,63.5289803 361.7799988,63.5289803 	"/>
	<path class="st0" d="M375.0397949,68.8795471c0.2597961-0.1215134,0.6062927-0.3465118,0.8661804-0.7965088
		c0.2767334-0.4500046,0.3464966-0.9180222,0.3464966-1.3680191c0-0.9517517-0.2947388-1.6965103-0.9179993-2.2848892
		c-0.7616272-0.7098808-1.6965027-0.9011497-3.1860352-0.9011497h-1.7483521v11.5493813h2.8913574
		c0.8831482,0,2.3198547-0.1563873,3.237793-1.125c0.5546265-0.5895233,0.7617188-1.2476578,0.7617188-2.0779037
		c0-0.709877-0.1384583-1.5063858-0.7617188-2.1645203C375.9577332,69.1225586,375.2478333,68.9312897,375.0397949,68.8795471z
		 M372.1663513,65.1917572h0.6053467c0.5028687,0,1.0046387,0.0517502,1.4028931,0.433136
		c0.3633728,0.3465118,0.4151001,0.7616348,0.4151001,1.108139c0,0.3982544-0.0517273,0.9348831-0.4499817,1.3151245
		c-0.4151306,0.3982544-1.0046387,0.451149-1.4366455,0.451149h-0.5367126V65.1917572z M374.9879456,72.9655838
		c-0.4499817,0.3645248-1.2464905,0.4499969-1.74823,0.4499969h-1.0733643v-3.4627838h1.1082153
		c0.6232605,0,1.3331604,0.0529022,1.8180237,0.5197678c0.2936096,0.2947617,0.4668884,0.7447586,0.4668884,1.2116241
		C375.5594788,72.2039566,375.3344727,72.6888351,374.9879456,72.9655838z"/>
	<path class="st0" d="M384.802887,63.3219948c-3.4628906,0-6.0076599,2.5965157-6.0076599,5.9906883
		c0,3.3930206,2.5447693,5.9906769,6.0076599,5.9906769c3.4627686,0,6.0086975-2.5976562,6.0086975-5.9906769
		C390.8115845,65.9185104,388.2656555,63.3219948,384.802887,63.3219948z M384.802887,73.6754608
		c-2.4761658,0-4.2413635-1.8000031-4.2413635-4.3627777c0-2.5627823,1.7651978-4.3639374,4.2413635-4.3639374
		c2.4761353,0,4.2424316,1.8011551,4.2424316,4.3639374C389.0453186,71.8754578,387.2790222,73.6754608,384.802887,73.6754608z"/>
	<polygon class="st0" points="405.6083374,63.5289803 403.2884521,63.5289803 398.8210449,68.1347809 398.8210449,63.5289803 
		397.0547791,63.5289803 397.0547791,75.0783615 398.8210449,75.0783615 398.8210449,70.2993088 399.1675415,69.9527969 
		403.2884521,75.0783615 405.643219,75.0783615 400.3971863,68.7580338 	"/>
	<polygon class="st0" points="414.3900452,63.5289803 411.6889038,69.6940689 408.710907,63.5289803 406.563324,63.5289803 
		410.6673889,71.8057022 409.1778564,75.0783615 411.0137939,75.0783615 416.2249451,63.5289803 	"/>
	<path class="st0" d="M418.2986145,70.4208145c0,1.0046463,0.0180359,2.1645279-0.5714111,2.7360382
		c-0.2250977,0.2249985-0.5884705,0.3982544-1.0384521,0.3982544c-0.243042,0-0.4680176-0.0528946-0.6412964-0.1046448v1.6278992
		c0.2081604,0.0517502,0.4680176,0.1034927,0.7796631,0.1034927c0.7268372,0,1.5063782-0.2069855,2.0948486-0.691864
		c1.0911865-0.9011536,1.1429138-2.2342911,1.1429138-3.549408v-5.7488251h3.8442688v9.8866043h1.7662964V63.5289803h-7.3768311
		V70.4208145z"/>
	<path class="st0" d="M431.3540039,68.1876755h-1.3157959v-4.6586952h-1.7662659v11.5493813h3.098938
		c0.7098694,0,1.6965027-0.0697632,2.5278931-0.6232529c0.9697571-0.6412735,1.4377747-1.7494049,1.4377747-2.8046494
		c0-1.0563889-0.433136-1.9744034-1.0912781-2.5459137C433.3621521,68.3260498,432.1853943,68.1876755,431.3540039,68.1876755z
		 M431.2842407,73.4155807h-1.2460327v-3.5662766h1.2809143c1.8697815,0,2.2860413,0.9866333,2.2860413,1.8180237
		C433.6051636,73.4155807,431.7522583,73.4155807,431.2842407,73.4155807z"/>
	<polygon class="st0" points="435.0809021,65.1917572 437.7302856,65.1917572 437.7302856,75.0783615 439.496582,75.0783615 
		439.496582,65.1917572 442.144928,65.1917572 442.144928,63.5289803 435.0809021,63.5289803 	"/>
	<polygon class="st0" points="448.1916809,69.6940689 445.2137756,63.5289803 443.0661011,63.5289803 447.170166,71.8057022 
		445.6806335,75.0783615 447.5166626,75.0783615 452.7278137,63.5289803 450.8928223,63.5289803 	"/>
	<path class="st0" d="M459.333313,64.153389c-0.8312988-0.5546455-1.8180237-0.6244087-2.5278931-0.6244087h-2.5458374v11.5493813
		h1.7662659v-4.6924286h0.7965088c0.8482666,0,1.9046631-0.1215057,2.8226624-0.9000015
		c0.9517517-0.8145218,1.1250305-1.8528976,1.1250305-2.5279007C460.77005,65.9016418,460.3030701,64.7935028,459.333313,64.153389z
		 M456.8223572,68.7580338h-0.7965088v-3.6011505h0.7795715c2.0082092,0,2.2680969,1.143013,2.2680969,1.7831345
		C459.0735168,68.0144272,458.3456116,68.7580338,456.8223572,68.7580338z"/>
	<rect x="470.7328186" y="63.5289803" class="st0" width="1.7662724" height="11.5493822"/>
	<path class="st0" d="M465.5385437,68.1876755H464.22229v-4.6586952h-1.7662964v11.5493813h3.0994263
		c0.7098694,0,1.6965942-0.0697632,2.5279846-0.6232529c0.9697571-0.6412735,1.4376831-1.7494049,1.4376831-2.8046494
		c0-1.0563889-0.433136-1.9744034-1.091156-2.5459137C467.5467834,68.3260498,466.3699341,68.1876755,465.5385437,68.1876755z
		 M465.4687805,73.4155807H464.22229v-3.5662766h1.2813721c1.869873,0,2.2860413,0.9866333,2.2860413,1.8180237
		C467.7897034,73.4155807,465.9367981,73.4155807,465.4687805,73.4155807z"/>
	<path class="st0" d="M484.3696899,64.153389c-0.8313904-0.5546455-1.8181152-0.6244087-2.5280151-0.6244087h-2.5458069v11.5493813
		h1.7662659v-4.6924286h0.7965088c0.8482666,0,1.9046631-0.1215057,2.8226624-0.9000015
		c0.9517517-0.8145218,1.125-1.8528976,1.125-2.5279007C485.8063049,65.9016418,485.339447,64.7935028,484.3696899,64.153389z
		 M481.8586426,68.7580338h-0.7965088v-3.6011505h0.779541c2.0082397,0,2.2681274,1.143013,2.2681274,1.7831345
		C484.1098022,68.0144272,483.381897,68.7580338,481.8586426,68.7580338z"/>
	<path class="st0" d="M493.1302185,63.3219948c-3.4627686,0-6.0076294,2.5965157-6.0076294,5.9906883
		c0,3.3930206,2.5448608,5.9906769,6.0076294,5.9906769c3.4627991,0,6.0086975-2.5976562,6.0086975-5.9906769
		C499.138916,65.9185104,496.5930176,63.3219948,493.1302185,63.3219948z M493.1302185,73.6754608
		c-2.4761353,0-4.2413635-1.8000031-4.2413635-4.3627777c0-2.5627823,1.7652283-4.3639374,4.2413635-4.3639374
		c2.4761658,0,4.2424316,1.8011551,4.2424316,4.3639374C497.3726501,71.8754578,495.6063843,73.6754608,493.1302185,73.6754608z"/>
	<path class="st0" d="M502.6260376,64.8283844c-0.9697571,0.9168701-1.8528748,2.3895264-1.8528748,4.5191727
		c0,1.6267548,0.5018311,3.099411,1.8528748,4.3627853c0.6750183,0.6412735,1.9902344,1.5930176,4.0861511,1.5930176
		c0.7965088,0,2.0081482-0.1732483,3.1680298-0.8651199v-2.0959091c-0.6580505,0.6232529-1.7314148,1.3331299-3.116272,1.3331299
		c-2.4592896,0-4.2245178-1.8866272-4.2245178-4.3279037c0-2.5459137,1.6965942-4.3988113,4.20755-4.3988113
		c0.657074,0,1.8518372,0.1215057,3.1332397,1.2813873V64.153389c-1.0035095-0.6412735-2.0250244-0.8313942-3.0813904-0.8313942
		C505.20578,63.3219948,503.8208008,63.7022362,502.6260376,64.8283844z"/>
	<path class="st0" d="M513.0209351,64.8283844c-0.9697876,0.9168701-1.8529053,2.3895264-1.8529053,4.5191727
		c0,1.6267548,0.5017395,3.099411,1.8529053,4.3627853c0.6749878,0.6412735,1.9901733,1.5930176,4.0859985,1.5930176
		c0.7965088,0,2.0082397-0.1732483,3.1681519-0.8651199v-2.0959091c-0.6581421,0.6232529-1.7313843,1.3331299-3.116394,1.3331299
		c-2.4591675,0-4.2244263-1.8866272-4.2244263-4.3279037c0-2.5459137,1.6965332-4.3988113,4.2075806-4.3988113
		c0.6570435,0,1.8518066,0.1215057,3.1332397,1.2813873V64.153389c-1.0036011-0.6412735-2.0250854-0.8313942-3.0814819-0.8313942
		C515.6005859,63.3219948,514.2156982,63.7022362,513.0209351,64.8283844z"/>
	<polygon class="st0" points="524.1520386,63.5289803 522.3857422,63.5289803 522.3857422,75.5981293 530.1776123,67.3045425 
		530.1776123,75.0783615 531.9438477,75.0783615 531.9438477,63.0452499 524.1520386,71.3388367 	"/>
	<path class="st0" d="M539.319519,61.0190964c-0.1383667,0-1.1947632-0.0180168-1.4714966-0.9697647l-1.3848877,0.6232567
		c0.5883789,1.4366302,1.9563599,1.7662697,2.8563843,1.7662697c0.9000854,0,2.2681274-0.3296394,2.8575439-1.7662697
		l-1.3859253-0.6232567C540.5142822,61.0010796,539.4578857,61.0190964,539.319519,61.0190964z"/>
	<polygon class="st0" points="536.3067627,63.5289803 534.5404663,63.5289803 534.5404663,75.5981293 542.3323975,67.3045425 
		542.3323975,75.0783615 544.0986938,75.0783615 544.0986938,63.0452499 536.3067627,71.3388367 	"/>
	<path class="st0" d="M547.9237671,64.8283844c-0.9697876,0.9168701-1.8529053,2.3895264-1.8529053,4.5191727
		c0,1.6267548,0.5018311,3.099411,1.8529053,4.3627853c0.6751099,0.6412735,1.9902344,1.5930176,4.0861206,1.5930176
		c0.7965088,0,2.0081787-0.1732483,3.1681519-0.8651199v-2.0959091c-0.6581421,0.6232529-1.7315063,1.3331299-3.116394,1.3331299
		c-2.4592896,0-4.2244873-1.8866272-4.2244873-4.3279037c0-2.5459137,1.6965942-4.3988113,4.2076416-4.3988113
		c0.6569824,0,1.8518066,0.1215057,3.1332397,1.2813873V64.153389c-1.0036011-0.6412735-2.0251465-0.8313942-3.0814819-0.8313942
		C550.50354,63.3219948,549.1185303,63.7022362,547.9237671,64.8283844z"/>
	<polygon class="st0" points="565.8411255,63.5289803 563.5213623,63.5289803 559.053833,68.1347809 559.053833,63.5289803 
		557.2875366,63.5289803 557.2875366,75.0783615 559.053833,75.0783615 559.053833,70.2993088 559.4003296,69.9527969 
		563.5213623,75.0783615 565.8759766,75.0783615 560.6299438,68.7580338 	"/>
	<path class="st0" d="M571.9185181,63.3219948c-3.4628906,0-6.0076294,2.5965157-6.0076294,5.9906883
		c0,3.3930206,2.5447388,5.9906769,6.0076294,5.9906769c3.4627686,0,6.008667-2.5976562,6.008667-5.9906769
		C577.9271851,65.9185104,575.3812866,63.3219948,571.9185181,63.3219948z M571.9185181,73.6754608
		c-2.4761353,0-4.241394-1.8000031-4.241394-4.3627777c0-2.5627823,1.7652588-4.3639374,4.241394-4.3639374
		s4.2424316,1.8011551,4.2424316,4.3639374C576.1609497,71.8754578,574.3946533,73.6754608,571.9185181,73.6754608z"/>
	<polygon class="st0" points="581.6383057,63.5289803 579.8720093,63.5289803 579.8720093,75.5981293 587.6638184,67.3045425 
		587.6638184,75.0783615 589.4301147,75.0783615 589.4301147,63.0452499 581.6383057,71.3388367 	"/>
	<path class="st0" d="M584.651062,61.0190964c-0.1383667,0-1.1947632-0.0180168-1.4714966-0.9697647l-1.3850098,0.6232567
		c0.588501,1.4366302,1.9564819,1.7662697,2.8565063,1.7662697c0.9000854,0,2.2681274-0.3296394,2.8575439-1.7662697
		l-1.3860474-0.6232567C585.8458252,61.0010796,584.7894287,61.0190964,584.651062,61.0190964z"/>
	<path class="st0" d="M603.1884766,64.4469986h-0.3115845v-1.3848839h-1.7662964v1.3848839h-0.3116455
		c-3.6012573,0-5.1245117,2.0261536-5.1245117,4.5023041c0,2.4761581,1.5232544,4.5011597,5.1245117,4.5011597h0.3116455v1.6278992
		h1.7662964v-1.6278992h0.3115845c3.6022949,0,5.1255493-2.0250015,5.1255493-4.5011597
		C608.3140259,66.4731522,606.7907715,64.4469986,603.1884766,64.4469986z M601.1105957,71.8237152h-0.345459
		c-2.3029175,0-3.3244019-1.2476578-3.3244019-2.8744125c0-1.6278992,1.0214844-2.8744049,3.3244019-2.8744049h0.345459V71.8237152z
		 M603.2233887,71.8237152h-0.3464966v-5.7488174h0.3464966c2.3028564,0,3.3244019,1.2465057,3.3244019,2.8744049
		C606.5477905,70.5760574,605.5262451,71.8237152,603.2233887,71.8237152z"/>
	<polygon class="st0" points="610.2208252,75.0783615 616.5929565,75.0783615 616.5929565,73.4155807 611.9870605,73.4155807 
		611.9870605,69.7795486 616.4545898,69.7795486 616.4545898,68.1179123 611.9870605,68.1179123 611.9870605,65.1917572 
		616.5929565,65.1917572 616.5929565,63.5289803 610.2208252,63.5289803 	"/>
	<path class="st0" d="M627.4061279,63.5289803h-7.2035522v5.2988167c0,1.5930176-0.1901245,2.4581375-0.4151001,3.0296478
		c-0.3465576,0.866272-1.0046997,1.5930176-1.8360596,1.558136v4.2604446h1.6627808v-2.5976639h7.4454346v2.5976639h1.6616211
		v-4.2604446h-1.3151245V63.5289803z M625.6398315,73.4155807h-4.9692383
		c0.3285522-0.3116226,0.6581421-0.7267456,0.8999634-1.3668671c0.2081909-0.5546417,0.3982544-1.4377747,0.3982544-3.2209167
		v-3.6360397h3.6710205V73.4155807z"/>
	<polygon class="st0" points="630.3312378,75.0783615 636.7033081,75.0783615 636.7033081,73.4155807 632.0974731,73.4155807 
		632.0974731,69.7795486 636.5649414,69.7795486 636.5649414,68.1179123 632.0974731,68.1179123 632.0974731,65.1917572 
		636.7033081,65.1917572 636.7033081,63.5289803 630.3312378,63.5289803 	"/>
	<path class="st0" d="M643.9290161,64.153389c-0.8314209-0.5546455-1.8180542-0.6244087-2.5279541-0.6244087h-2.5458984v11.5493813
		h1.7662964v-4.6924286h0.7965088c0.8482666,0,1.9046631-0.1215057,2.8226318-0.9000015
		c0.9518433-0.8145218,1.125-1.8528976,1.125-2.5279007C645.3656006,65.9016418,644.8987427,64.7935028,643.9290161,64.153389z
		 M641.4179688,68.7580338H640.62146v-3.6011505h0.7796021c2.0081787,0,2.2680664,1.143013,2.2680664,1.7831345
		C643.6691284,68.0144272,642.9412842,68.7580338,641.4179688,68.7580338z"/>
	<path class="st0" d="M644.7360229,75.0783615h1.9046631l1.2634888-2.7877808h4.9343872l1.2126465,2.7877808h1.9046631
		l-5.4720459-12.2243805L644.7360229,75.0783615z M648.6309204,70.628952l1.7843018-3.9139328l1.7134399,3.9139328H648.6309204z"/>
	<polygon class="st0" points="665.7897949,63.5289803 664.0234985,63.5289803 664.0234985,73.4155807 659.2444458,73.4155807 
		659.2444458,63.5289803 657.4781494,63.5289803 657.4781494,75.0783615 665.6165161,75.0783615 665.6165161,77.6760254 
		667.2782593,77.6760254 667.2782593,73.4155807 665.7897949,73.4155807 	"/>
	<polygon class="st0" points="670.6533203,63.5289803 668.887085,63.5289803 668.887085,75.5981293 676.6790161,67.3045425 
		676.6790161,75.0783615 678.4453125,75.0783615 678.4453125,63.0452499 670.6533203,71.3388367 	"/>
	<polygon class="st0" points="682.8081665,63.5289803 681.0418701,63.5289803 681.0418701,75.5981293 688.8337402,67.3045425 
		688.8337402,75.0783615 690.5999756,75.0783615 690.5999756,63.0452499 682.8081665,71.3388367 	"/>
</g>
</svg>
