{
  "accessors": [
    {
      "bufferView": 2,
      "componentType": 5126,
      "count": 1321,
      "max": [
        0.42538198828697205,
        0.4276430010795593,
        0.5716609954833984
      ],
      "min": [
        -0.42250901460647583,
        -0.427715003490448,
        -0.7727929949760437
      ],
      "type": "VEC3"
    },
    {
      "bufferView": 2,
      "byteOffset": 15852,
      "componentType": 5126,
      "count": 1321,
      "max": [
        0.9996376633644104,
        0.9993956685066223,
        0.999851644039154
      ],
      "min": [
        -0.9998232126235962,
        -0.9969073534011841,
        -0.9999285936355591
      ],
      "type": "VEC3"
    },
    {
      "bufferView": 1,
      "componentType": 5126,
      "count": 1321,
      "max": [
        0.9965819716453552,
        -0.014960999600589275
      ],
      "min": [
        0.005359000060707331,
        -0.9941409826278687
      ],
      "type": "VEC2"
    },
    {
      "bufferView": 0,
      "componentType": 5125,
      "count": 6990,
      "type": "SCALAR"
    }
  ],
  "asset": {
    "extras": {
      "author": "SMF Features Developed From Cheryl Hill (https://sketchfab.com/cherylhill28)",
      "license": "CC-BY-4.0 (http://creativecommons.org/licenses/by/4.0/)",
      "source": "https://sketchfab.com/3d-models/bfbbr-jellyfish-blue-9505346ea3e043799df5ade88c608ade",
      "title": "BFBBR - Jellyfish Blue"
    },
    "generator": "Sketchfab-16.59.0",
    "version": "2.0"
  },
  "bufferViews": [
    {
      "buffer": 0,
      "byteLength": 27960,
      "name": "floatBufferViews",
      "target": 34963
    },
    {
      "buffer": 0,
      "byteLength": 10568,
      "byteOffset": 27960,
      "byteStride": 8,
      "name": "floatBufferViews",
      "target": 34962
    },
    {
      "buffer": 0,
      "byteLength": 31704,
      "byteOffset": 38528,
      "byteStride": 12,
      "name": "floatBufferViews",
      "target": 34962
    }
  ],
  "buffers": [
    {
      "byteLength": 70232,
      "uri": "scene.bin"
    }
  ],
  "extensionsUsed": [
    "KHR_materials_unlit"
  ],
  "images": [
    {
      "uri": "textures/MI_EnemyJelly_Pink_baseColor.png"
    }
  ],
  "materials": [
    {
      "doubleSided": true,
      "extensions": {
        "KHR_materials_unlit": {}
      },
      "name": "MI_EnemyJelly_Pink",
      "pbrMetallicRoughness": {
        "baseColorTexture": {
          "index": 0
        },
        "metallicFactor": 0.0
      }
    }
  ],
  "meshes": [
    {
      "name": "Object_0",
      "primitives": [
        {
          "attributes": {
            "NORMAL": 1,
            "POSITION": 0,
            "TEXCOORD_0": 2
          },
          "indices": 3,
          "material": 0,
          "mode": 4
        }
      ]
    }
  ],
  "nodes": [
    {
      "children": [
        1
      ],
      "matrix": [
        1.0,
        0.0,
        0.0,
        0.0,
        0.0,
        2.220446049250313e-16,
        -1.0,
        0.0,
        0.0,
        1.0,
        2.220446049250313e-16,
        0.0,
        0.0,
        0.0,
        0.0,
        1.0
      ],
      "name": "Sketchfab_model"
    },
    {
      "children": [
        2
      ],
      "name": "Jellyfish.obj.cleaner.materialmerger.gles"
    },
    {
      "mesh": 0,
      "name": "Object_2"
    }
  ],
  "samplers": [
    {
      "magFilter": 9729,
      "minFilter": 9987,
      "wrapS": 10497,
      "wrapT": 10497
    }
  ],
  "scene": 0,
  "scenes": [
    {
      "name": "Sketchfab_Scene",
      "nodes": [
        0
      ]
    }
  ],
  "textures": [
    {
      "sampler": 0,
      "source": 0
    }
  ]
}
